HIERARCHY
ROOT Hips
{
	OFFSET 0.00 0.00 0.00
	CHANNELS 6 Xposition Yposition Zposition Xrotation Yrotation Zrotation
	JOINT Spine
	{
		OFFSET 0.00000 3.24121 0.00000
		CHANNELS 3 Xrotation Yrotation Zrotation
		JOINT Head
		{
			OFFSET 0.00000 18.38296 0.00000
			CHANNELS 3 Xrotation Yrotation Zrotation
			End Site
			{
				OFFSET 0.00000 4.52755 0.00000
			}
		}
		JOINT LeftShoulder
		{
			OFFSET 0.00000 12.82826 0.00000
			CHANNELS 3 Xrotation Yrotation Zrotation
			JOINT LeftArm
			{
				OFFSET 7.74805 0.00000 0.00000
				CHANNELS 3 Xrotation Yrotation Zrotation
				JOINT LeftForeArm
				{
					OFFSET 10.63561 0.00000 0.00000
					CHANNELS 3 Yrotation Zrotation Xrotation
					JOINT LeftHand
					{
						OFFSET 8.34675 0.00000 0.00000
						CHANNELS 3 Xrotation Yrotation Zrotation
						JOINT LeftHandThumb1
						{
							OFFSET 0.00000 0.00000 0.00000
							CHANNELS 3 Xrotation Zrotation Yrotation
							End Site
							{
								OFFSET 0.00000 0.00000 3.93700
							}
						}
						End Site
						{
							OFFSET 3.93700 0.00000 0.00000
						}
					}
				}
			}
		}
		JOINT RightShoulder
		{
			OFFSET 0.00000 12.82826 0.00000
			CHANNELS 3 Xrotation Yrotation Zrotation
			JOINT RightArm
			{
				OFFSET -7.74805 0.00000 0.00000
				CHANNELS 3 Xrotation Yrotation Zrotation
				JOINT RightForeArm
				{
					OFFSET -10.63561 0.00000 0.00000
					CHANNELS 3 Yrotation Zrotation Xrotation
					JOINT RightHand
					{
						OFFSET -8.34675 0.00000 0.00000
						CHANNELS 3 Xrotation Yrotation Zrotation
						JOINT RightHandThumb1
						{
							OFFSET 0.00000 0.00000 0.00000
							CHANNELS 3 Xrotation Zrotation Yrotation
							End Site
							{
								OFFSET 0.00000 0.00000 3.93700
							}
						}
						End Site
						{
							OFFSET -3.93700 0.00000 0.00000
						}
					}
				}
			}
		}
	}
	JOINT LeftUpLeg
	{
		OFFSET 3.43402 0.00000 0.00000
		CHANNELS 3 Xrotation Yrotation Zrotation
		JOINT LeftLeg
		{
			OFFSET 0.00000 -15.71302 0.00000
			CHANNELS 3 Xrotation Yrotation Zrotation
			JOINT LeftFoot
			{
				OFFSET 0.00000 -14.43512 0.00000
				CHANNELS 3 Xrotation Yrotation Zrotation
				JOINT LeftToeBase
				{
					OFFSET 0.00000 -1.27828 4.77061
					CHANNELS 3 Xrotation Yrotation Zrotation
					End Site
					{
						OFFSET 0.00000 0.00000 2.95275
					}
				}
			}
		}
	}
	JOINT RightUpLeg
	{
		OFFSET -3.43402 0.00000 0.00000
		CHANNELS 3 Xrotation Yrotation Zrotation
		JOINT RightLeg
		{
			OFFSET 0.00000 -15.71302 0.00000
			CHANNELS 3 Xrotation Yrotation Zrotation
			JOINT RightFoot
			{
				OFFSET 0.00000 -14.43512 0.00000
				CHANNELS 3 Xrotation Yrotation Zrotation
				JOINT RightToeBase
				{
					OFFSET 0.00000 -1.27828 4.77061
					CHANNELS 3 Xrotation Yrotation Zrotation
					End Site
					{
						OFFSET 0.00000 0.00000 2.95275
					}
				}
			}
		}
	}
}
MOTION
Frames: 22
Frame Time: 0.008333
 -2.7845 32.9402 -5.4041 31.6884 25.5442 -40.6572 -26.3814 -21.9616 16.3691 1.5628 6.7426 3.2624 40.2317 10.7311 19.1402 -83.4315 -41.9460 -106.6080 -54.4975 -0.0000 -13.0768 3.2476 6.4592 -26.7662 33.1476 -0.0000 26.2537 49.7122 -11.1831 -8.3839 -69.0047 48.0405 92.4992 43.1349 -0.0000 -43.8347 -3.2233 10.6982 16.8764 32.8623 0.0000 -24.3270 -43.1927 -0.1200 18.3048 27.3774 -0.0000 0.0000 -17.8166 3.9416 4.9789 3.7394 0.0000 -0.0000 -162.0970 0.2766 -8.8165 148.2607 -0.0000 0.0000 49.4354 4.5663 5.8772 50.8830 -0.0000 -0.0000
 -2.7948 32.9193 -5.4137 31.8782 25.7580 -40.7554 -26.4215 -22.1444 16.2141 1.5476 6.6471 3.2898 40.3009 10.5795 19.2768 -83.4647 -41.9506 -106.4055 -54.7543 -0.0000 -12.9920 3.3033 6.5722 -26.7611 33.1476 -0.0000 26.2537 49.8408 -11.1892 -8.4804 -69.0254 48.0914 92.4252 43.3218 -0.0000 -44.1353 -3.2602 10.8482 16.8389 32.8623 0.0000 -24.3270 -43.3318 -0.2852 18.1426 27.5429 -0.0000 0.0000 -17.9521 3.9182 4.8618 3.8622 0.0000 0.0000 -162.3553 0.3363 -9.0569 148.2599 0.0000 -0.0000 49.3207 4.2921 6.2630 51.0447 0.0000 0.0000
 -2.8039 32.8976 -5.4286 32.1192 25.9286 -40.8558 -26.5245 -22.3103 16.0550 1.5286 6.5773 3.2819 40.4139 10.4258 19.3890 -83.5770 -42.0299 -106.1893 -55.0609 -0.0000 -12.8971 3.3261 6.6121 -26.7810 33.1476 -0.0000 26.2537 49.9805 -11.2196 -8.5470 -69.0849 48.2213 92.3291 43.5288 -0.0000 -44.4656 -3.2843 10.9658 16.7872 32.8623 0.0000 -24.3270 -43.5537 -0.4335 17.9606 27.7378 -0.0000 0.0000 -18.1643 3.9138 4.5371 4.2961 0.0000 0.0000 -162.6734 0.4297 -9.2999 148.2523 -0.0000 0.0000 49.1867 4.1084 6.5384 51.0129 -0.0000 0.0000
 -2.8145 32.8764 -5.4430 32.3265 26.0962 -40.9959 -26.5564 -22.5222 15.9793 1.5037 6.5587 3.2368 40.4473 10.2556 19.4742 -83.5830 -42.0605 -105.9506 -55.3420 -0.0000 -12.6993 3.3332 6.5574 -27.0213 33.1476 -0.0000 26.2537 50.1324 -11.2480 -8.6213 -69.2568 48.3415 92.2771 43.6754 -0.0000 -44.5861 -3.3137 11.0878 16.7555 32.8623 0.0000 -24.3270 -43.7793 -0.5986 17.8389 27.9719 -0.0000 -0.0000 -18.3326 3.8817 4.3551 4.4894 0.0000 0.0000 -162.9538 0.4677 -9.5838 148.2457 -0.0000 0.0000 49.0792 3.9046 6.9416 51.1854 -0.0000 -0.0000
 -2.8216 32.8505 -5.4533 32.5891 26.3231 -41.1420 -26.6230 -22.7778 15.8412 1.4481 6.5168 3.1979 40.4763 10.1051 19.6034 -83.5925 -42.0356 -105.7695 -55.6185 -0.0000 -12.4346 3.3543 6.6243 -26.9338 33.1476 -0.0000 26.2537 50.3171 -11.3531 -8.6382 -69.5790 48.5292 92.2957 43.7898 -0.0000 -44.6355 -3.2961 11.1105 16.6396 32.8623 0.0000 -24.3270 -44.0212 -0.7790 17.6583 28.2370 0.0000 -0.0000 -18.4958 3.8044 4.1622 4.5533 -0.0000 -0.0000 -163.2664 0.6258 -9.8694 148.2817 -0.0000 -0.0000 49.0683 3.8318 7.1893 51.1015 -0.0000 -0.0000
 -2.8326 32.8264 -5.4665 32.7780 26.5076 -41.2703 -26.6229 -23.0143 15.7749 1.4274 6.5010 3.0878 40.5966 9.9319 19.6529 -83.5832 -42.0215 -105.4479 -55.9370 -0.0000 -12.2762 3.3884 6.6168 -27.1954 33.1476 -0.0000 26.2537 50.3846 -11.4189 -8.7176 -69.8968 48.7240 92.3801 43.7967 -0.0000 -44.7640 -3.3110 11.1647 16.6351 32.8623 0.0000 -24.3270 -44.2621 -0.9043 17.5532 28.5269 0.0000 -0.0000 -18.6724 3.7071 3.9213 4.6580 -0.0000 -0.0000 -163.5352 0.7153 -10.1345 148.2751 -0.0000 0.0000 49.0607 3.8013 7.3008 51.2419 0.0000 -0.0000
 -2.8400 32.8012 -5.4780 32.9436 26.7144 -41.3746 -26.6066 -23.2575 15.6894 1.4293 6.5149 2.9620 40.6764 9.7047 19.7450 -83.4308 -41.9245 -105.1074 -56.2614 -0.0000 -12.1015 3.3836 6.5602 -27.3621 33.1476 -0.0000 26.2537 50.3809 -11.4758 -8.8247 -70.1437 48.9316 92.4634 43.7724 -0.0000 -44.9486 -3.3370 11.2745 16.6062 32.8623 0.0000 -24.3270 -44.4678 -1.0193 17.4322 28.8283 0.0000 0.0000 -18.8744 3.6267 3.6622 4.7778 -0.0000 0.0000 -163.7551 0.8774 -10.3791 148.2757 -0.0000 -0.0000 49.0578 3.8365 7.3943 51.3859 -0.0000 -0.0000
 -2.8468 32.7749 -5.4926 33.1501 26.8942 -41.5158 -26.5972 -23.5744 15.6438 1.4013 6.5663 2.8306 40.8592 9.5323 19.8053 -83.2993 -41.7100 -104.7632 -56.6002 -0.0000 -11.9444 3.4009 6.5505 -27.5167 33.1476 -0.0000 26.2537 50.3048 -11.5136 -9.0270 -70.3279 49.1038 92.5637 43.7765 -0.0000 -45.1240 -3.3754 11.4502 16.5471 32.8623 0.0000 -24.3270 -44.7235 -1.1957 17.3068 29.1601 0.0000 0.0000 -19.0779 3.5779 3.3882 4.8463 -0.0000 0.0000 -164.0083 1.0620 -10.6542 148.2528 -0.0000 -0.0000 49.0381 3.8160 7.5668 51.5644 0.0000 -0.0000
 -2.8553 32.7472 -5.5059 33.3206 27.1056 -41.6534 -26.5331 -23.9036 15.5926 1.3699 6.6308 2.7349 41.0515 9.3403 19.8907 -83.1033 -41.4106 -104.4008 -56.9145 -0.0000 -11.8296 3.4077 6.5166 -27.6847 33.1476 -0.0000 26.2537 50.1774 -11.5276 -9.2408 -70.3954 49.2203 92.6413 43.8649 -0.0000 -45.2238 -3.3399 11.5028 16.3119 32.8623 0.0000 -24.3270 -44.9505 -1.3606 17.1929 29.5025 0.0000 -0.0000 -19.2671 3.5224 3.1601 4.8469 -0.0000 0.0000 -164.2057 1.2537 -10.9377 148.2304 -0.0000 0.0000 49.0369 3.7856 7.5759 51.6083 -0.0000 -0.0000
 -2.8605 32.7214 -5.5186 33.5102 27.3365 -41.7799 -26.4745 -24.2644 15.5249 1.3172 6.7256 2.6220 41.2970 9.1382 19.8955 -82.9330 -41.0774 -104.0183 -57.1271 -0.0000 -11.6685 3.3398 6.2781 -28.0866 33.1476 -0.0000 26.2537 50.1320 -11.5320 -9.4134 -70.5589 49.5461 92.6518 43.8262 -0.0000 -45.7712 -3.4252 11.7986 16.3159 32.8623 0.0000 -24.3270 -45.1675 -1.4931 17.0491 29.8063 -0.0000 -0.0000 -19.4720 3.4544 2.8895 5.0043 -0.0000 0.0000 -164.3641 1.5325 -11.1950 148.2115 -0.0000 0.0000 48.9976 3.7546 7.6698 51.5273 0.0000 -0.0000
 -2.8655 32.6962 -5.5306 33.8167 27.5803 -41.9686 -26.4947 -24.7448 15.4314 1.2734 6.8514 2.4931 41.4688 8.9674 19.8968 -82.7071 -40.7452 -103.7108 -57.2710 -0.0000 -11.9042 3.3019 6.1676 -28.2352 33.1476 -0.0000 26.2537 50.1749 -11.5338 -9.5819 -70.7623 49.8141 92.6424 43.8591 -0.0000 -46.0988 -3.4527 12.0047 16.1766 32.8623 0.0000 -24.3270 -45.4349 -1.7059 16.8447 30.0804 0.0000 -0.0000 -19.6746 3.4516 2.5791 5.1975 -0.0000 -0.0000 -164.5741 1.9124 -11.4794 148.2199 0.0000 0.0000 48.9395 3.7040 7.8233 51.5362 -0.0000 -0.0000
 -2.8717 32.6733 -5.5451 33.9660 27.7603 -42.1147 -26.4062 -25.0821 15.4389 1.2322 6.9560 2.3572 41.6956 8.7386 19.8995 -82.5200 -40.3011 -103.3963 -57.2940 -0.0000 -12.0487 3.2455 5.9640 -28.6236 33.1476 -0.0000 26.2537 50.2545 -11.5408 -9.6921 -71.0096 50.0223 92.6181 43.8391 -0.0000 -46.3188 -3.4785 12.1160 16.1513 32.8623 0.0000 -24.3270 -45.6301 -1.8000 16.7690 30.3431 -0.0000 0.0000 -19.9178 3.4228 2.2462 5.3856 -0.0000 0.0000 -164.6473 2.1306 -11.7660 148.1901 -0.0000 0.0000 48.9152 3.6344 7.8697 51.6683 -0.0000 0.0000
 -2.8769 32.6501 -5.5565 34.1103 27.9535 -42.2492 -26.3023 -25.4368 15.4418 1.1582 7.0642 2.2030 41.8394 8.5314 19.8698 -82.3722 -39.8860 -103.1827 -57.1495 -0.0000 -12.1394 3.1639 5.6881 -29.1493 33.1476 -0.0000 26.2537 50.3860 -11.6016 -9.7391 -71.4422 50.2986 92.6836 43.7375 -0.0000 -46.4744 -3.4892 12.1874 16.1102 32.8623 0.0000 -24.3270 -45.7832 -1.8947 16.6824 30.5695 -0.0000 -0.0000 -20.1557 3.3764 2.0374 5.4614 0.0000 0.0000 -164.6873 2.3743 -12.0372 148.1939 0.0000 -0.0000 48.8671 3.5860 7.9241 51.7412 0.0000 -0.0000
 -2.8814 32.6291 -5.5696 34.2949 28.1219 -42.3947 -26.2595 -25.7918 15.4298 1.1294 7.1408 2.0613 41.9939 8.3083 19.8315 -82.3007 -39.4707 -103.0278 -56.8144 -0.0000 -12.3252 3.0524 5.4046 -29.5163 33.1476 -0.0000 26.2537 50.3789 -11.6278 -9.8341 -71.7368 50.4459 92.7944 43.5835 -0.0000 -46.5036 -3.4955 12.1918 16.1323 32.8623 0.0000 -24.3270 -45.9897 -2.0044 16.5960 30.8192 -0.0000 0.0000 -20.4399 3.4296 1.4940 5.6906 0.0000 -0.0000 -164.7245 2.6302 -12.3096 148.2110 0.0000 -0.0000 48.8194 3.5648 7.9512 51.8306 0.0000 -0.0000
 -2.8868 32.6124 -5.5852 34.4899 28.2480 -42.5937 -26.2068 -26.1778 15.4955 1.0995 7.2636 1.9124 42.1582 8.1120 19.7423 -82.3294 -39.1272 -102.9214 -56.2995 -0.0000 -12.8018 2.9116 5.0808 -29.8686 33.1476 -0.0000 26.2537 50.3227 -11.6496 -9.9913 -72.0285 50.5538 92.9620 43.3825 -0.0000 -46.5574 -3.5051 12.1983 16.1663 32.8623 0.0000 -24.3270 -46.2280 -2.1316 16.5571 31.0685 -0.0000 0.0000 -20.6810 3.4135 1.0326 5.8860 -0.0000 0.0000 -164.7239 2.8687 -12.5989 148.2238 0.0000 -0.0000 48.8060 3.6076 8.0143 51.9228 0.0000 0.0000
 -2.8919 32.5974 -5.5984 34.6525 28.3482 -42.7743 -26.1569 -26.5354 15.5727 1.1162 7.3537 1.7312 42.3347 7.9155 19.6099 -82.4502 -38.8273 -102.8748 -55.5960 -0.0000 -13.2792 2.7387 4.6935 -30.3109 33.1476 -0.0000 26.2537 50.2724 -11.6827 -10.1783 -72.2859 50.5476 93.1777 43.2019 -0.0000 -46.5331 -3.4806 12.1269 16.1469 32.8623 0.0000 -24.3270 -46.4499 -2.2463 16.5435 31.3034 -0.0000 0.0000 -20.9125 3.4325 0.5235 5.9886 -0.0000 0.0000 -164.6814 3.0429 -12.8594 148.2457 -0.0000 0.0000 48.8400 3.6092 8.1015 51.9987 -0.0000 -0.0000
 -2.8963 32.5842 -5.6103 34.7592 28.4469 -42.8996 -26.0868 -26.8618 15.6129 1.1653 7.4457 1.5892 42.4798 7.6969 19.5126 -82.5462 -38.5198 -102.8502 -54.7809 -0.0000 -13.9773 2.6620 4.4872 -30.7220 33.1476 -0.0000 26.2537 50.2704 -11.6789 -10.3802 -72.4906 50.5230 93.3537 42.9767 -0.0000 -46.6615 -3.5286 12.2178 16.2448 32.8623 0.0000 -24.3270 -46.6305 -2.3028 16.5395 31.5405 0.0000 -0.0000 -21.1144 3.4257 0.0820 5.9465 0.0000 -0.0000 -164.5630 3.2225 -13.0681 148.3096 0.0000 0.0000 48.7623 3.6436 8.1709 52.0240 0.0000 0.0000
 -2.9008 32.5713 -5.6225 34.8611 28.5487 -43.0137 -26.0110 -27.1747 15.6514 1.2068 7.5268 1.4150 42.5730 7.4765 19.4172 -82.6583 -38.1776 -102.9059 -53.8216 -0.0000 -14.6059 2.4984 4.1600 -31.0265 33.1476 -0.0000 26.2537 50.3211 -11.6911 -10.6059 -72.7252 50.5177 93.5454 42.7473 -0.0000 -46.9801 -3.5661 12.3759 16.2131 32.8623 0.0000 -24.3270 -46.7946 -2.3931 16.5221 31.7633 0.0000 -0.0000 -21.3185 3.4798 -0.4054 5.9624 -0.0000 0.0000 -164.4115 3.4231 -13.2731 148.3766 -0.0000 -0.0000 48.7214 3.7209 8.0833 52.2398 -0.0000 -0.0000
 -2.9048 32.5596 -5.6363 34.9584 28.6500 -43.1619 -25.9037 -27.5007 15.7413 1.2427 7.5743 1.2162 42.6615 7.1984 19.3259 -82.6655 -37.9512 -102.8655 -52.9411 -0.0000 -15.2160 2.3991 4.0067 -30.9475 33.1476 -0.0000 26.2537 50.3541 -11.7017 -10.8673 -72.8925 50.5250 93.6920 42.5841 -0.0000 -47.2702 -3.5703 12.4625 16.1261 32.8623 0.0000 -24.3270 -46.9487 -2.5125 16.5294 31.9753 0.0000 -0.0000 -21.4710 3.4682 -0.8531 5.7542 0.0000 -0.0000 -164.2358 3.5915 -13.4912 148.4858 -0.0000 -0.0000 48.6794 3.7351 7.8898 52.2187 0.0000 0.0000
 -2.9091 32.5467 -5.6454 35.0420 28.7514 -43.2775 -25.8070 -27.7939 15.7848 1.2458 7.6163 1.0570 42.7402 6.9501 19.2487 -82.7296 -37.7089 -102.9092 -51.8735 -0.0000 -16.1447 2.2502 3.7884 -30.7408 33.1476 -0.0000 26.2537 50.4203 -11.7421 -11.0813 -73.0335 50.5231 93.8058 42.5273 -0.0000 -47.3249 -3.5222 12.4695 15.9109 32.8623 0.0000 -24.3270 -47.0889 -2.5566 16.5415 32.1856 -0.0000 0.0000 -21.6798 3.4287 -1.3080 5.9134 0.0000 0.0000 -164.0566 3.7694 -13.6698 148.5900 0.0000 0.0000 48.7132 3.6723 7.9252 52.3795 -0.0000 -0.0000
 -2.9129 32.5342 -5.6559 35.1134 28.8624 -43.3837 -25.6708 -28.0922 15.8431 1.1970 7.6882 0.8625 42.7400 6.6559 19.1410 -82.6454 -37.4610 -102.9098 -50.8015 -0.0000 -17.0850 2.1661 3.7177 -30.2566 33.1476 -0.0000 26.2537 50.4544 -11.8192 -11.3223 -73.3010 50.4557 94.0450 42.3039 -0.0000 -47.3223 -3.5464 12.5158 15.9600 32.8623 0.0000 -24.3270 -47.2186 -2.6025 16.5599 32.4058 -0.0000 -0.0000 -21.8731 3.3522 -1.8498 5.8919 -0.0000 0.0000 -163.8188 4.0624 -13.8504 148.6965 0.0000 -0.0000 48.7529 3.7924 8.0732 52.3771 -0.0000 -0.0000
 -2.9168 32.5198 -5.6670 35.1569 29.0027 -43.4576 -25.4842 -28.3927 15.8889 1.0986 7.7735 0.6343 42.8443 6.3574 19.0289 -82.5844 -37.1796 -102.8529 -49.7001 -0.0000 -17.7070 1.9286 3.4098 -29.5167 33.1476 -0.0000 26.2537 50.4102 -11.9351 -11.5876 -73.6348 50.4267 94.3739 42.0397 -0.0000 -47.3266 -3.5760 12.4919 16.1151 32.8623 0.0000 -24.3270 -47.3275 -2.5803 16.5513 32.5922 0.0000 -0.0000 -22.0684 3.3337 -2.2509 5.8874 0.0000 0.0000 -163.5777 4.3284 -14.0190 148.8181 -0.0000 -0.0000 48.7492 3.7580 8.2135 52.5321 -0.0000 0.0000
